<svg data-v-423bf9ae="" xmlns="http://www.w3.org/2000/svg" viewBox="0 0 124.40783774081031 163" class="iconAbove"><!----><!----><!----><g data-v-423bf9ae="" id="00d876b1-3087-4c60-939f-a29aa0cdc105" fill="black" transform="matrix(3.799873117233202,0,0,3.799873117233202,0.797972049081686,93.84230569974083)"><path d="M2.31 2.41L2.31 8.57L2.31 8.57Q3.69 7.37 4.83 7.37L4.83 7.37L4.83 7.37Q5.99 7.37 6.63 8.29L6.63 8.29L6.63 8.29Q7.18 9.08 7.18 10.27L7.18 10.27L7.18 10.27Q7.18 11.19 6.59 12.14L6.59 12.14L6.59 12.14Q6.01 13.06 5.13 13.67L5.13 13.67L5.13 13.67Q4.18 14.30 3.27 14.30L3.27 14.30L3.27 14.30Q2.30 14.30 1.64 13.64L1.64 13.64L1.64 13.64Q0.98 12.98 0.98 12.01L0.98 12.01L0.98 5.24L0.98 5.24Q0.98 4.66 0.92 4.46L0.92 4.46L0.92 4.46Q0.78 4.03 0.36 4.03L0.36 4.03L0.36 4.03Q0.25 4.03 0.08 4.07L0.08 4.07L0.08 4.07Q-0.10 4.11-0.21 4.13L-0.21 4.13L-0.21 4.13Q0.47 3.60 0.81 3.38L0.81 3.38L0.81 3.38Q1.16 3.15 1.53 2.89L1.53 2.89L1.53 2.89Q1.91 2.63 2.31 2.41L2.31 2.41ZM5.80 12.09L5.80 12.09L5.80 12.09Q5.87 11.68 5.87 11.18L5.87 11.18L5.87 11.18Q5.87 10.68 5.75 10.15L5.75 10.15L5.75 10.15Q5.62 9.63 5.35 9.21L5.35 9.21L5.35 9.21Q4.73 8.29 3.61 8.29L3.61 8.29L3.61 8.29Q3.01 8.29 2.65 8.85L2.65 8.85L2.65 8.85Q2.31 9.36 2.31 10.00L2.31 10.00L2.31 11.69L2.31 11.69Q2.31 12.46 2.86 12.95L2.86 12.95L2.86 12.95Q3.41 13.44 4.24 13.44L4.24 13.44L4.24 13.44Q5.58 13.44 5.80 12.09ZM12.76 9.28L12.76 12.06L12.74 12.54L12.74 12.54Q12.74 13.07 13.04 13.21L13.04 13.21L13.04 13.21Q13.16 13.27 13.31 13.27L13.31 13.27L13.31 13.27Q13.55 13.27 13.80 13.16L13.80 13.16L13.80 13.16Q13.54 13.27 13.35 13.45L13.35 13.45L13.35 13.45Q13.16 13.62 12.96 13.79L12.96 13.79L12.96 13.79Q12.47 14.21 11.97 14.21L11.97 14.21L11.97 14.21Q11.47 14.21 11.44 13.63L11.44 13.63L11.44 13.63Q11.42 13.48 11.42 13.33L11.42 13.33L11.42 13.33Q10.19 14.18 9.17 14.18L9.17 14.18L9.17 14.18Q8.30 14.18 7.96 13.66L7.96 13.66L7.96 13.66Q7.84 13.47 7.84 13.13L7.84 13.13L7.84 13.13Q7.84 12.80 8.05 12.46L8.05 12.46L8.05 12.46Q8.25 12.12 8.57 11.84L8.57 11.84L8.57 11.84Q9.13 11.32 9.92 10.99L9.92 10.99L9.92 10.99Q10.51 10.73 11.43 10.70L11.43 10.70L11.43 10.40L11.43 10.40Q11.43 9.31 11.23 8.93L11.23 8.93L11.23 8.93Q11.03 8.54 10.72 8.36L10.72 8.36L10.72 8.36Q10.40 8.18 9.98 8.18L9.98 8.18L9.98 8.18Q9.26 8.18 8.72 8.46L8.72 8.46L8.72 8.46Q9.47 7.84 9.82 7.64L9.82 7.64L9.82 7.64Q10.53 7.24 11.12 7.24L11.12 7.24L11.12 7.24Q11.70 7.24 12.00 7.41L12.00 7.41L12.00 7.41Q12.29 7.58 12.46 7.86L12.46 7.86L12.46 7.86Q12.76 8.35 12.76 9.28L12.76 9.28ZM9.54 13.04L9.54 13.04L9.54 13.04Q9.71 13.16 9.93 13.21L9.93 13.21L9.93 13.21Q10.14 13.27 10.58 13.27L10.58 13.27L10.58 13.27Q11.01 13.27 11.43 13.06L11.43 13.06L11.43 11.63L10.32 11.63L10.32 11.63Q9.73 11.63 9.28 11.71L9.28 11.71L9.28 11.71Q9.19 12.00 9.19 12.27L9.19 12.27L9.19 12.27Q9.19 12.54 9.29 12.73L9.29 12.73L9.29 12.73Q9.38 12.92 9.54 13.04ZM15.26 13.62L15.26 13.62L15.27 9.22L15.27 9.22Q15.27 8.76 15.15 8.61L15.15 8.61L15.15 8.61Q14.94 8.33 14.56 8.33L14.56 8.33L14.56 8.33Q14.18 8.33 13.89 8.44L13.89 8.44L13.89 8.44Q14.07 8.37 14.36 8.12L14.36 8.12L14.36 8.12Q14.88 7.64 15.10 7.55L15.10 7.55L15.10 7.55Q15.51 7.39 15.82 7.39L15.82 7.39L15.82 7.39Q16.13 7.39 16.29 7.49L16.29 7.49L16.29 7.49Q16.44 7.59 16.51 7.77L16.51 7.77L16.51 7.77Q16.60 7.98 16.60 8.57L16.60 8.57L16.60 8.57Q17.88 7.44 18.99 7.44L18.99 7.44L18.99 7.44Q19.60 7.44 20.05 7.83L20.05 7.83L20.05 7.83Q20.52 8.24 20.52 8.83L20.52 8.83L20.52 12.20L20.52 12.20Q20.52 12.71 20.63 12.90L20.63 12.90L20.63 12.90Q20.84 13.26 21.31 13.26L21.31 13.26L21.31 13.26Q21.59 13.26 21.83 13.16L21.83 13.16L21.83 13.16Q21.23 13.69 20.99 13.84L20.99 13.84L20.99 13.84Q20.46 14.18 20.06 14.18L20.06 14.18L20.06 14.18Q19.66 14.18 19.49 14.04L19.49 14.04L19.49 14.04Q19.33 13.90 19.26 13.68L19.26 13.68L19.26 13.68Q19.18 13.44 19.18 12.70L19.18 12.70L19.18 10.14L19.18 10.14Q19.18 8.92 18.38 8.53L18.38 8.53L18.38 8.53Q18.09 8.39 17.69 8.39L17.69 8.39L17.69 8.39Q16.70 8.39 16.62 9.86L16.62 9.86L16.62 9.86Q16.60 10.23 16.60 10.53L16.60 10.53L16.60 12.64L16.60 12.64Q16.60 13.08 16.86 13.23L16.86 13.23L16.86 13.23Q16.96 13.30 17.10 13.30L17.10 13.30L17.10 13.30Q17.25 13.30 17.40 13.23L17.40 13.23L17.40 13.23Q17.26 13.35 17.06 13.52L17.06 13.52L17.06 13.52Q16.86 13.69 16.65 13.85L16.65 13.85L16.65 13.85Q16.11 14.22 15.78 14.22L15.78 14.22L15.78 14.22Q15.26 14.22 15.26 13.62ZM23.01 3.41L24.34 2.48L24.34 2.48Q24.36 2.92 24.36 3.21L24.36 3.21L24.36 3.66L24.36 3.66Q24.36 3.97 24.26 4.06L24.26 4.06L24.26 4.06Q24.15 4.14 24.02 4.24L24.02 4.24L24.02 4.24Q23.88 4.33 23.73 4.44L23.73 4.44L23.73 4.44Q23.57 4.55 23.42 4.64L23.42 4.64L23.42 4.64Q23.28 4.73 23.16 4.80L23.16 4.80L23.16 4.80Q23.05 4.87 23.01 4.89L23.01 4.89L23.01 4.89Q23.03 4.67 23.03 4.26L23.03 4.26L23.03 4.26Q23.03 3.86 23.01 3.41L23.01 3.41ZM22.19 16.65L22.19 16.65L22.19 16.65Q22.03 16.77 22.03 16.94L22.03 16.94L22.03 16.94Q22.03 17.12 22.16 17.20L22.16 17.20L22.16 17.20Q22.29 17.28 22.44 17.27L22.44 17.27L22.45 17.27L22.45 17.27Q23.00 16.36 23.05 14.79L23.05 14.79L23.05 14.79Q23.07 14.35 23.07 13.93L23.07 13.93L23.07 9.95L23.07 9.95Q23.07 9.19 22.83 8.94L22.83 8.94L22.83 8.94Q22.71 8.83 22.52 8.83L22.52 8.83L22.52 8.83Q22.29 8.83 21.88 8.92L21.88 8.92L21.88 8.92Q22.72 8.26 24.40 7.21L24.40 7.21L24.40 12.74L24.40 12.74Q24.40 14.23 24.26 14.80L24.26 14.80L24.26 14.80Q24.13 15.37 23.93 15.84L23.93 15.84L23.93 15.84Q23.73 16.30 23.45 16.73L23.45 16.73L23.45 16.73Q23.17 17.16 22.82 17.49L22.82 17.49L22.82 17.49Q22.05 18.20 21.15 18.20L21.15 18.20L21.15 18.20Q20.71 18.20 20.71 17.88L20.71 17.88L20.71 17.88Q20.71 17.66 20.94 17.49L20.94 17.49L20.94 17.49Q21.16 17.31 21.32 17.20L21.32 17.20L21.32 17.20Q21.49 17.09 21.66 16.99L21.66 16.99L21.66 16.99Q22.08 16.75 22.19 16.65ZM31.79 8.18L31.79 8.18L31.79 8.18Q32.14 8.57 32.33 9.08L32.33 9.08L32.33 9.08Q32.53 9.59 32.53 10.10L32.53 10.10L32.53 10.10Q32.53 10.62 32.38 11.10L32.38 11.10L32.38 11.10Q32.22 11.59 31.95 12.04L31.95 12.04L31.95 12.04Q31.68 12.50 31.32 12.89L31.32 12.89L31.32 12.89Q30.95 13.28 30.52 13.58L30.52 13.58L30.52 13.58Q29.59 14.20 28.64 14.20L28.64 14.20L28.64 14.20Q27.52 14.20 26.74 13.33L26.74 13.33L26.74 13.33Q25.98 12.50 25.98 11.38L25.98 11.38L25.98 11.38Q25.98 10.42 26.56 9.45L26.56 9.45L26.56 9.45Q27.43 7.99 28.93 7.48L28.93 7.48L28.93 7.48Q29.41 7.31 29.94 7.31L29.94 7.31L29.94 7.31Q30.47 7.31 30.96 7.54L30.96 7.54L30.96 7.54Q31.44 7.78 31.79 8.18ZM28.55 8.22L28.55 8.22L28.55 8.22Q27.87 8.22 27.56 8.89L27.56 8.89L27.56 8.89Q27.31 9.41 27.31 10.06L27.31 10.06L27.31 10.06Q27.31 10.72 27.48 11.28L27.48 11.28L27.48 11.28Q27.66 11.85 28 12.29L28 12.29L28 12.29Q28.76 13.29 29.96 13.29L29.96 13.29L29.96 13.29Q30.65 13.29 30.97 12.59L30.97 12.59L30.97 12.59Q31.19 12.07 31.19 11.40L31.19 11.40L31.19 11.40Q31.19 10.08 30.46 9.15L30.46 9.15L30.46 9.15Q29.72 8.22 28.55 8.22Z"></path></g><!----><g data-v-423bf9ae="" id="085ab3d1-5a9e-48b5-bfbb-04024cac6734" transform="matrix(1.2025814691326535,0,0,1.2025814691326535,2.8222640702841204,-24.162036298786106)" stroke="none" fill="black"><path d="M17.961 31.643L8.251 57.29c-3.785-5.55-2.469-13.798-1.976-15.748l11.686-9.899zm6.748 33.895c-1.811-.449-3.292-1.05-4.772-1.499-4.115-1.65-7.077-3.3-8.724-4.05L34.09 44.542l12.509 24.896c-6.255-.3-12.509-1.199-18.927-2.999l-2.963-.901zM12.53 55.34l8.064-21.297c1.975 2.85 6.418 5.249 12.837 7.199L12.53 55.34zm14.319 13.948a85.796 85.796 0 0 0 23.535 3.3c9.71 0 18.927-1.8 27.32-5.1L51.536 95.384 18.784 66.738c1.481.6 3.127 1.2 4.772 1.649l3.293.901zm19.914-28.496c-7.241-.9-20.243-3.6-23.699-8.699-.658-1.05-.987-2.1-.658-3.3.987-1.799 3.456-3.449 6.912-4.949 5.431-2.1 12.508-3.299 20.079-3.299 7.57 0 14.812 1.2 20.078 3.299 3.292 1.35 5.597 2.85 6.748 4.5.494.9.987 2.7.165 4.5-1.152 1.799-3.456 3.299-6.913 4.649-5.266 2.1-12.508 3.3-20.078 3.3h-2.634zm1.81 49.043l2.304-2.1-14.318-12.898-2.304 2.1 14.318 12.898zM37.217 42.142c6.419 1.5 12.015 1.95 12.344 1.95h.165c3.785-.15 7.241-.45 10.368-.75L49.231 67.488 36.395 41.842l.822.3zm25.511 3.15L80.997 62.54c-8.394 3.899-17.117 6.299-26.169 6.898-.987 0-1.975.15-2.962.15l10.862-24.296zm4.279 28.646L52.853 86.686l2.304 2.1 14.154-12.748-2.304-2.1zm-2.469-31.346c6.254-1.2 10.697-3.3 13.166-5.999l3.292 21.597-16.458-15.598zm22.054-7.349l-6.748-2.7c.164-.6.164-1.35.164-1.95l6.584 4.65zm6.089 4.949c2.14 5.399 1.317 10.349-2.304 15.148-1.975 2.399-4.114 4.05-5.596 5.1l-3.785-24.147 11.355 4.5.33-.601z"></path></g><!----></svg>